# xmcd
#
# Track frame offsets:
#	150
#	23751
#	42136
#	63511
#	85866
#	108397
#	132672
#	154308
#	172848
#	190557
#
# Disc length: 2956 seconds
#
# Revision: 1
# Processed by: cddbd v1.5.1PL0 Copyright (c) Steve Scherf et al.
# Submitted via: EasyCDDAExtractor 7.0.6.1
#
DISCID=7a0b8a0a
DTITLE=Willie West - When You Tie The Knot
DYEAR=1900
DGENRE=Blues
TTITLE0=Hot Lover
TTITLE1=I'm Hooked On Your Love
TTITLE2=Real Thing
TTITLE3=I Can't Go On Mrs. Jones
TTITLE4=When You Tie The Knot
TTITLE5=Happy Anniversary
TTITLE6=When Love Ain't There
TTITLE7=You Hold The Key
TTITLE8=This Time Around
TTITLE9=Hot Lover (Remix)
EXTD=
EXTT0=
EXTT1=
EXTT2=
EXTT3=
EXTT4=
EXTT5=
EXTT6=
EXTT7=
EXTT8=
EXTT9=
PLAYORDER=
